<svg width="128" height="128" viewBox="0 0 128 128" fill="none" xmlns="http://www.w3.org/2000/svg">
  <!-- Blue rounded background -->
  <rect width="128" height="128" rx="24" fill="#3B82F6"/>
  <!-- Package-check icon from Lucide (scaled from 24x24 to 64x64, positioned at 32,32) -->
  <g transform="translate(32, 32) scale(2.6667)" stroke="#FFFFFF" stroke-width="2" stroke-linecap="round" stroke-linejoin="round" fill="none">
    <path d="m16 16 2 2 4-4"/>
    <path d="M21 10V8a2 2 0 0 0-1-1.73l-7-4a2 2 0 0 0-2 0l-7 4A2 2 0 0 0 3 8v8a2 2 0 0 0 1 1.73l7 4a2 2 0 0 0 2 0l2-1.14"/>
    <path d="m7.5 4.27 9 5.15"/>
    <polyline points="3.29 7 12 12 20.71 7"/>
    <line x1="12" x2="12" y1="22" y2="12"/>
  </g>
</svg>
