<svg width="1000" height="560" viewBox="0 0 1000 560" fill="none" xmlns="http://www.w3.org/2000/svg">
  <!-- Window Chrome -->
  <rect x="0" y="0" width="1000" height="560" rx="12" fill="white" stroke="#E8E8E8" stroke-width="1"/>
  <path d="M0 12C0 5.37258 5.37258 0 12 0H988C994.627 0 1000 5.37258 1000 12V48H0V12Z" fill="#F9FAFB" stroke-bottom="#E8E8E8"/>
  <line x1="0" y1="48" x2="1000" y2="48" stroke="#E5E7EB"/>
  
  <!-- Window Controls -->
  <circle cx="24" cy="24" r="6" fill="#EF4444"/>
  <circle cx="44" cy="24" r="6" fill="#F59E0B"/>
  <circle cx="64" cy="24" r="6" fill="#10B981"/>

  <!-- App Container -->
  <rect x="0" y="49" width="1000" height="511" fill="#F9FAFB"/>

  <!-- Sidebar -->
  <rect x="0" y="49" width="240" height="511" fill="white" stroke-right="#E5E7EB"/>
  <line x1="240" y1="49" x2="240" y2="560" stroke="#E5E7EB"/>
  
  <!-- Logo Area -->
  <rect x="24" y="73" width="32" height="32" rx="6" fill="#3B82F6"/>
  <path d="M40 89L34 83M40 89L46 83M40 89V79" stroke="white" stroke-width="2" stroke-linecap="round" stroke-linejoin="round"/>
  <rect x="68" y="79" width="100" height="20" rx="4" fill="#F3F4F6"/>

  <!-- Nav Items -->
  <rect x="16" y="137" width="208" height="40" rx="6" fill="#EFF6FF"/>
  <rect x="32" y="149" width="16" height="16" rx="4" fill="#3B82F6"/>
  <rect x="60" y="149" width="80" height="16" rx="4" fill="#BFDBFE"/>

  <rect x="32" y="197" width="16" height="16" rx="4" fill="#9CA3AF"/>
  <rect x="60" y="197" width="100" height="16" rx="4" fill="#F3F4F6"/>

  <rect x="32" y="245" width="16" height="16" rx="4" fill="#9CA3AF"/>
  <rect x="60" y="245" width="90" height="16" rx="4" fill="#F3F4F6"/>

  <!-- Main Content -->
  <g transform="translate(280, 80)">
    <!-- Header -->
    <rect x="0" y="0" width="200" height="32" rx="4" fill="#E5E7EB"/>
    <rect x="0" y="44" width="400" height="20" rx="4" fill="#F3F4F6"/>

    <!-- Stats Cards -->
    <g transform="translate(0, 96)">
      <!-- Card 1 -->
      <rect width="200" height="100" rx="8" fill="white" stroke="#E5E7EB"/>
      <rect x="16" y="16" width="32" height="32" rx="6" fill="#EFF6FF"/>
      <rect x="16" y="64" width="80" height="20" rx="4" fill="#E5E7EB"/>
      
      <!-- Card 2 (Active Returns) -->
      <rect x="224" width="200" height="100" rx="8" fill="white" stroke="#FECACA"/>
      <rect x="240" y="16" width="32" height="32" rx="6" fill="#FEF2F2"/>
      <rect x="240" y="64" width="120" height="20" rx="4" fill="#E5E7EB"/>
      <circle cx="400" cy="28" r="4" fill="#EF4444"/>
      
      <!-- Card 3 -->
      <rect x="448" width="200" height="100" rx="8" fill="white" stroke="#E5E7EB"/>
      <rect x="464" y="16" width="32" height="32" rx="6" fill="#ECFDF5"/>
      <rect x="464" y="64" width="60" height="20" rx="4" fill="#E5E7EB"/>
    </g>

    <!-- Recent Orders Table -->
    <g transform="translate(0, 236)">
      <text x="0" y="0" font-family="sans-serif" font-size="14" font-weight="600" fill="#374151">Recent Activity</text>
      
      <!-- Table Header -->
      <rect x="0" y="16" width="648" height="40" rx="6" fill="#F9FAFB"/>
      
      <!-- Row 1: Urgent Return -->
      <g transform="translate(0, 72)">
        <rect width="648" height="64" rx="6" fill="white" stroke="#E5E7EB"/>
        <!-- Icon -->
        <rect x="16" y="16" width="32" height="32" rx="6" fill="#FEF2F2"/>
        <!-- Text -->
        <rect x="64" y="22" width="120" height="20" rx="4" fill="#E5E7EB"/>
        <!-- Badge -->
        <rect x="530" y="20" width="100" height="24" rx="12" fill="#FEF2F2"/>
        <text x="548" y="36" font-family="sans-serif" font-size="11" font-weight="600" fill="#EF4444">Expires in 2d</text>
      </g>

      <!-- Row 2: Shipped -->
      <g transform="translate(0, 152)">
        <rect width="648" height="64" rx="6" fill="white" stroke="#E5E7EB"/>
        <rect x="16" y="16" width="32" height="32" rx="6" fill="#EFF6FF"/>
        <rect x="64" y="22" width="140" height="20" rx="4" fill="#E5E7EB"/>
        <rect x="550" y="20" width="80" height="24" rx="12" fill="#EFF6FF"/>
        <text x="572" y="36" font-family="sans-serif" font-size="11" font-weight="600" fill="#3B82F6">Shipped</text>
      </g>
    </g>
  </g>
</svg>
